Coordinates
version=1
nRows=9
nColumns=32
inDegrees=yes

Units are S.I. units (second, meters, Newtons, ...)
If the header above contains a line with 'inDegrees', this indicates whether rotational values are in degrees (yes) or radians (no).

endheader
time	pelvis_tilt	pelvis_list	pelvis_rotation	pelvis_tx	pelvis_ty	pelvis_tz	hip_flexion_r	hip_adduction_r	hip_rotation_r	knee_angle_r	knee_adduction_r	med_cond_adduction_r	lat_cond_adduction_r	patella_r_constrained_knee_angle	ankle_angle_r	subtalar_angle_r	mtp_angle_r	hip_flexion_l	hip_adduction_l	hip_rotation_l	knee_angle_l	knee_adduction_l	med_cond_adduction_l	lat_cond_adduction_l	patella_l_constrained_knee_angle	ankle_angle_l	subtalar_angle_l	mtp_angle_l	lumbar_extension	lumbar_bending	lumbar_rotation
      0.66000000	    -20.24576884	     -0.68666466	     -3.76701523	      0.16059871	      0.72305711	     -1.18898733	     63.46975443	    -33.83416507	     -8.18032294	    -69.29246792	      4.85724420	      0.00000000	      0.00000000	     -1.20938171	     15.06544626	     13.70006011	     -0.00000000	     63.69195940	    -42.10491539	    -12.46678805	    -70.78772304	      3.83358841	      0.00000000	      0.00000000	     -1.23547884	     14.80894144	     19.03976611	     -0.00000000	     -3.43326037	      1.55974026	      1.04526767
      0.66500000	    -20.23978243	     -0.68044040	     -3.83356338	      0.16015474	      0.72025267	     -1.18880473	     63.97244231	    -33.87340109	     -8.00961624	    -69.92740134	      4.69721906	     -0.00000000	     -0.00000000	     -1.22046339	     15.33137903	     13.83719620	      0.00000000	     64.15741327	    -42.35231375	    -12.14973713	    -71.40386925	      3.89700857	      0.00000000	      0.00000000	     -1.24623262	     15.02955253	     19.07908374	      0.00000000	     -3.53637770	      1.60849986	      1.26381387
      0.67000000	    -20.17393660	     -0.72673129	     -3.71625235	      0.15984549	      0.71758600	     -1.18909410	     64.28499036	    -34.12985367	     -8.12250041	    -70.55688002	      4.47939113	      0.00000000	      0.00000000	     -1.23144987	     15.58584321	     14.17803334	     -0.00000000	     64.68154242	    -42.41996232	    -11.72543438	    -72.01762430	      3.88192492	      0.00000000	      0.00000000	     -1.25694466	     15.20251451	     19.10937002	      0.00000000	     -3.69611482	      1.59399022	      1.01543260
      0.67500000	    -20.10980150	     -0.67826134	     -3.72687700	      0.15950087	      0.71498435	     -1.18905601	     64.71880644	    -34.26735874	     -7.99184822	    -71.16592726	      4.27573049	     -0.00000000	     -0.00000000	     -1.24207975	     15.82537829	     14.39674955	     -0.00000000	     65.02877485	    -42.56810222	    -11.53563624	    -72.58853843	      3.86757463	      0.00000000	      0.00000000	     -1.26690899	     15.43532971	     19.14831792	     -0.00000000	     -3.87833128	      1.55309450	      1.09599235
      0.68000000	    -20.15489985	     -0.68065798	     -3.78936159	      0.15903306	      0.71203843	     -1.18893762	     65.27099910	    -34.30177669	     -7.79183996	    -71.78597524	      4.14850432	      0.00000000	      0.00000000	     -1.25290162	     16.05981348	     14.49774092	     -0.00000000	     65.58373219	    -42.80163334	    -11.18907185	    -73.20607808	      3.91249391	      0.00000000	      0.00000000	     -1.27768709	     15.64302365	     19.17961415	      0.00000000	     -3.92308948	      1.65480612	      1.33173346
      0.68500000	    -19.93527053	     -0.56427439	     -3.48462626	      0.15889214	      0.70991909	     -1.18968769	     65.42070903	    -34.88866065	     -7.79616590	    -72.33354660	      4.02293514	     -0.00000000	     -0.00000000	     -1.26245855	     16.30740365	     14.79333082	     -0.00000000	     65.77358272	    -42.49275534	    -11.16567074	    -73.71696712	      3.60675137	      0.00000000	      0.00000000	     -1.28660379	     16.03565570	     19.22617182	     -0.00000000	     -4.29835381	      1.41512348	      0.84957173
      0.69000000	    -20.02208717	     -0.72123503	     -3.74087999	      0.15843557	      0.70687994	     -1.18914706	     65.97349638	    -34.58557427	     -7.83086420	    -72.95753320	      3.66821470	      0.00000000	      0.00000000	     -1.27334917	     16.52298933	     14.95316646	      0.00000000	     66.44403983	    -43.08338976	    -10.59182186	    -74.35263702	      3.85542842	     -0.00000000	     -0.00000000	     -1.29769832	     16.05079772	     19.24103720	      0.00000000	     -4.29212698	      1.54831750	      1.01126208
      0.69500000	    -20.02075891	     -0.74908465	     -3.71924684	      0.15801247	      0.70413299	     -1.18926439	     66.40209535	    -34.71197490	     -7.73962769	    -73.53824859	      3.54020858	     -0.00000000	     -0.00000000	     -1.28348456	     16.73537224	     15.11044754	     -0.00000000	     66.99567141	    -43.21441675	    -10.25616611	    -74.94301076	      3.79501161	     -0.00000000	     -0.00000000	     -1.30800229	     16.19672382	     19.27060969	     -0.00000000	     -4.40828243	      1.70119652	      1.15228340
      0.70000000	    -19.89378349	     -0.71403037	     -3.68069730	      0.15782987	      0.70179067	     -1.18943498	     66.69836560	    -34.91510290	     -7.75836830	    -74.08517927	      3.26080118	      0.00000000	      0.00000000	     -1.29303031	     16.94939559	     15.38066514	      0.00000000	     67.27425549	    -43.30140012	    -10.17824271	    -75.48357816	      3.65566869	     -0.00000000	     -0.00000000	     -1.31743697	     16.38814284	     19.29714496	      0.00000000	     -4.67040693	      1.53306349	      0.90136742
